<svg width="184" height="61" viewBox="0 0 184 61" fill="none" xmlns="http://www.w3.org/2000/svg">
<path fill-rule="evenodd" clip-rule="evenodd" d="M17.304 60.0957C13.6453 60.0957 10.528 59.349 7.952 57.8557C5.376 56.3997 3.39733 54.365 2.016 51.7517C0.672 49.1384 0 46.1144 0 42.6797C0 39.4317 0.504 36.2397 1.512 33.1037C2.52 29.9677 4.01333 26.8877 5.992 23.8637C7.97067 20.877 10.416 18.021 13.328 15.2957C16.24 12.533 19.6 9.91969 23.408 7.45569C23.3333 7.34369 22.9413 7.25035 22.232 7.17568C21.5227 7.06368 20.6827 6.97035 19.712 6.89568C18.7413 6.82102 17.7707 6.76502 16.8 6.72768C15.8667 6.69035 15.12 6.67168 14.56 6.67168C13.216 6.67168 12.04 6.82101 11.032 7.11968C10.0613 7.38101 9.20267 8.22102 8.456 9.63969L7.056 9.19169C7.616 7.47436 8.232 6.07435 8.904 4.99168C9.576 3.90902 10.304 3.06902 11.088 2.47169C12.096 1.68769 13.1787 1.20235 14.336 1.01569C15.5307 0.791687 16.8187 0.679688 18.2 0.679688C19.0587 0.679688 20.0853 0.735686 21.28 0.847687C22.4747 0.922352 23.7067 1.05302 24.976 1.23969C26.2453 1.42635 27.4213 1.65036 28.504 1.91169C29.624 2.13569 30.4827 2.39702 31.08 2.69569L31.136 3.08768C30.576 4.24502 29.8853 5.27169 29.064 6.16769C28.28 7.02635 27.384 7.77302 26.376 8.40768C24.7707 9.45302 23.1467 10.5917 21.504 11.8237C19.8613 13.0184 18.2747 14.325 16.744 15.7437C14.6533 17.6477 12.7307 19.701 10.976 21.9037C9.25867 24.069 7.896 26.3464 6.888 28.7357C5.88 31.125 5.376 33.589 5.376 36.1277C5.376 38.3677 5.768 40.3464 6.552 42.0637C7.37333 43.8184 8.512 45.293 9.968 46.4877C11.424 47.6824 13.16 48.5784 15.176 49.1757C17.192 49.8104 19.3947 50.1277 21.784 50.1277C26.824 50.1277 31.192 48.8024 34.888 46.1517C38.5809 43.5032 41.7148 39.5317 44.2896 34.237C43.9533 32.9262 43.7852 31.4474 43.7852 29.8004V13.2244H48.1532V29.2404C48.1532 32.1524 48.7505 34.2804 49.9452 35.6244C51.1398 36.9684 52.9692 37.6404 55.4332 37.6404C58.0838 37.6404 60.1558 36.7444 61.6492 34.9524C63.1798 33.1231 63.9452 30.6964 63.9452 27.6724V13.2244H68.3132V41.0004H63.9452V35.9604H63.2732C62.3772 37.7524 61.2012 39.1711 59.7452 40.2164C58.2892 41.2618 56.4412 41.7844 54.2012 41.7844C52.6705 41.7844 51.2518 41.5231 49.9452 41.0004C48.6758 40.5151 47.5745 39.7684 46.6412 38.7604C46.1013 38.153 45.6291 37.4575 45.2248 36.6739C43.9881 39.5221 42.5772 42.196 40.992 44.6957C39.088 47.7944 36.9413 50.4824 34.552 52.7597C32.1627 55.0744 29.5307 56.8664 26.656 58.1357C23.7813 59.4424 20.664 60.0957 17.304 60.0957ZM77.1783 41.0004H72.8102V13.2244H77.1783V17.9284H77.8503C79.5676 14.2698 82.5542 12.4404 86.8102 12.4404C90.0209 12.4404 92.5782 13.4484 94.4823 15.4644C96.3863 17.4431 97.3383 20.4298 97.3383 24.4244V41.0004H92.9702V25.3204C92.9702 22.4084 92.3169 20.2244 91.0103 18.7684C89.7036 17.3124 87.9303 16.5844 85.6902 16.5844C83.0396 16.5844 80.9489 17.4991 79.4183 19.3284C77.9249 21.1204 77.1783 23.5284 77.1783 26.5524V41.0004ZM126.531 33.6084C127.315 31.8164 127.707 29.7631 127.707 27.4484V26.7764C127.707 24.4991 127.315 22.4831 126.531 20.7284C125.785 18.9364 124.758 17.4244 123.451 16.1924C122.182 14.9604 120.707 14.0271 119.027 13.3924C117.347 12.7578 115.593 12.4404 113.763 12.4404C111.934 12.4404 110.179 12.7578 108.499 13.3924C106.819 14.0271 105.326 14.9604 104.019 16.1924C102.75 17.4244 101.723 18.9364 100.939 20.7284C100.193 22.4831 99.8193 24.4991 99.8193 26.7764V27.4484C99.8193 29.7631 100.193 31.8164 100.939 33.6084C101.723 35.3631 102.75 36.8564 104.019 38.0884C105.289 39.2831 106.763 40.1978 108.443 40.8324C110.123 41.4671 111.897 41.7844 113.763 41.7844C115.593 41.7844 117.347 41.4671 119.027 40.8324C120.745 40.1978 122.238 39.2831 123.507 38.0884C124.777 36.8564 125.785 35.3631 126.531 33.6084ZM117.459 36.9684C116.339 37.4164 115.107 37.6404 113.763 37.6404C112.419 37.6404 111.169 37.4164 110.011 36.9684C108.891 36.4831 107.902 35.7924 107.043 34.8964C106.185 34.0004 105.513 32.9364 105.027 31.7044C104.542 30.4351 104.299 29.0164 104.299 27.4484V26.7764C104.299 25.2831 104.542 23.9204 105.027 22.6884C105.513 21.4191 106.185 20.3364 107.043 19.4404C107.902 18.5444 108.91 17.8538 110.067 17.3684C111.225 16.8458 112.457 16.5844 113.763 16.5844C115.07 16.5844 116.302 16.8458 117.459 17.3684C118.617 17.8538 119.625 18.5444 120.483 19.4404C121.342 20.3364 122.014 21.4191 122.499 22.6884C122.985 23.9204 123.227 25.2831 123.227 26.7764V27.4484C123.227 29.0164 122.985 30.4351 122.499 31.7044C122.014 32.9364 121.342 34.0004 120.483 34.8964C119.625 35.7924 118.617 36.4831 117.459 36.9684ZM156.396 27.4484C156.396 29.7631 156.004 31.8164 155.22 33.6084C154.474 35.3631 153.466 36.8564 152.196 38.0884C150.927 39.2831 149.434 40.1978 147.716 40.8324C146.036 41.4671 144.282 41.7844 142.452 41.7844C140.586 41.7844 138.812 41.4671 137.132 40.8324C135.452 40.1978 133.978 39.2831 132.708 38.0884C131.439 36.8564 130.412 35.3631 129.628 33.6084C128.882 31.8164 128.508 29.7631 128.508 27.4484V26.7764C128.508 24.4991 128.882 22.4831 129.628 20.7284C130.412 18.9364 131.439 17.4244 132.708 16.1924C134.015 14.9604 135.508 14.0271 137.188 13.3924C138.868 12.7578 140.623 12.4404 142.452 12.4404C144.282 12.4404 146.036 12.7578 147.716 13.3924C149.396 14.0271 150.871 14.9604 152.14 16.1924C153.447 17.4244 154.474 18.9364 155.22 20.7284C156.004 22.4831 156.396 24.4991 156.396 26.7764V27.4484ZM142.452 37.6404C143.796 37.6404 145.028 37.4164 146.148 36.9684C147.306 36.4831 148.314 35.7924 149.172 34.8964C150.031 34.0004 150.703 32.9364 151.188 31.7044C151.674 30.4351 151.916 29.0164 151.916 27.4484V26.7764C151.916 25.2831 151.674 23.9204 151.188 22.6884C150.703 21.4191 150.031 20.3364 149.172 19.4404C148.314 18.5444 147.306 17.8538 146.148 17.3684C144.991 16.8458 143.759 16.5844 142.452 16.5844C141.146 16.5844 139.914 16.8458 138.756 17.3684C137.599 17.8538 136.591 18.5444 135.732 19.4404C134.874 20.3364 134.202 21.4191 133.716 22.6884C133.231 23.9204 132.988 25.2831 132.988 26.7764V27.4484C132.988 29.0164 133.231 30.4351 133.716 31.7044C134.202 32.9364 134.874 34.0004 135.732 34.8964C136.591 35.7924 137.58 36.4831 138.7 36.9684C139.858 37.4164 141.108 37.6404 142.452 37.6404ZM163.245 41.0004H158.877V13.2244H163.245V17.9284H163.917C165.635 14.2698 168.621 12.4404 172.877 12.4404C176.088 12.4404 178.645 13.4484 180.549 15.4644C182.453 17.4431 183.405 20.4298 183.405 24.4244V41.0004H179.037V25.3204C179.037 22.4084 178.384 20.2244 177.077 18.7684C175.771 17.3124 173.997 16.5844 171.757 16.5844C169.107 16.5844 167.016 17.4991 165.485 19.3284C163.992 21.1204 163.245 23.5284 163.245 26.5524V41.0004ZM26.6122 31.5917C27.3962 32.2637 28.1802 33.0104 28.9642 33.8317H29.4122C30.9802 32.7117 32.1376 31.7037 32.8842 30.8077C33.6682 29.9117 34.0602 29.1464 34.0602 28.5117C34.0602 27.877 33.7616 27.205 33.1642 26.4957C32.5669 25.749 31.4096 24.8344 29.6922 23.7517H29.1882C28.9642 23.901 28.6282 24.1997 28.1802 24.6477C27.7322 25.0584 27.2656 25.5437 26.7802 26.1037C26.2576 26.6637 25.7722 27.2237 25.3242 27.7837C24.8762 28.3064 24.5402 28.7544 24.3162 29.1277V29.6317C25.0629 30.229 25.8282 30.8824 26.6122 31.5917Z" fill="#189877"/>
</svg>
